<svg preserveAspectRatio="xMinYMin"
			width="11693"
			height="8268"
			viewBox="0 0 11693 8268"
			xmlns="http://www.w3.org/2000/svg"
			xmlns:xlink="http://www.w3.org/1999/xlink"
			version="1.1"><path d="M393.7007874015748 393.7007874015748
L393.7007874015748 7874.299212598426
L11299.299212598426 7874.299212598426
L11299.299212598426 393.7007874015748
L393.7007874015748 393.7007874015748
" style="stroke: rgb(0, 0, 0); fill: none; stroke-width: 6" stroke-linecap="round"/>
<path d="M472.4409448818898 472.4409448818898
L472.4409448818898 7795.55905511811
L11220.55905511811 7795.55905511811
L11220.55905511811 472.4409448818898
L472.4409448818898 472.4409448818898
" style="stroke: rgb(0, 0, 0); fill: none; stroke-width: 6" stroke-linecap="round"/>
<path d="M5846.5 393.7007874015748
L5846.5 472.4409448818898
" style="stroke: rgb(0, 0, 0); fill: none; stroke-width: 6" stroke-linecap="round"/>
<path d="M5846.5 7795.55905511811
L5846.5 7874.299212598426
" style="stroke: rgb(0, 0, 0); fill: none; stroke-width: 6" stroke-linecap="round"/>
<path d="M393.7007874015748 4134
L472.4409448818898 4134
" style="stroke: rgb(0, 0, 0); fill: none; stroke-width: 6" stroke-linecap="round"/>
<path d="M11220.55905511811 4134
L11299.299212598426 4134
" style="stroke: rgb(0, 0, 0); fill: none; stroke-width: 6" stroke-linecap="round"/>
<path d="M1550 1250
L1550 1250
" style="stroke: rgb(132, 0, 0); fill: none; stroke-width: 6" stroke-linecap="round"/>
<path d="M1550 1250
L1550 1200
L1475 1150
L1550 1100
L1625 1150
L1550 1200
" style="stroke: rgb(132, 0, 0); fill: none; stroke-width: 6" stroke-linecap="round"/>
<path d="M1376.1904761904761 1092.6190476190477
L1376.1904761904761 1042.6190476190477
L1395.2380952380952 1042.6190476190477
L1400 1045
L1402.3809523809523 1047.3809523809523
L1404.7619047619048 1052.142857142857
L1404.7619047619048 1059.2857142857142
L1402.3809523809523 1064.047619047619
L1400 1066.4285714285713
L1395.2380952380952 1068.8095238095239
L1376.1904761904761 1068.8095238095239
" style="stroke: rgb(0, 132, 132); fill: none; stroke-width: 7.800000000000001" stroke-linecap="round"/>
<path d="M1421.4285714285716 1042.6190476190477
L1433.3333333333333 1092.6190476190477
L1442.857142857143 1056.904761904762
L1452.3809523809523 1092.6190476190477
L1464.2857142857142 1042.6190476190477
" style="stroke: rgb(0, 132, 132); fill: none; stroke-width: 7.800000000000001" stroke-linecap="round"/>
<path d="M1511.904761904762 1092.6190476190477
L1495.2380952380952 1068.8095238095239
" style="stroke: rgb(0, 132, 132); fill: none; stroke-width: 7.800000000000001" stroke-linecap="round"/>
<path d="M1483.3333333333333 1092.6190476190477
L1483.3333333333333 1042.6190476190477
L1502.3809523809523 1042.6190476190477
L1507.142857142857 1045
L1509.5238095238096 1047.3809523809523
L1511.904761904762 1052.142857142857
L1511.904761904762 1059.2857142857142
L1509.5238095238096 1064.047619047619
L1507.142857142857 1066.4285714285713
L1502.3809523809523 1068.8095238095239
L1483.3333333333333 1068.8095238095239
" style="stroke: rgb(0, 132, 132); fill: none; stroke-width: 7.800000000000001" stroke-linecap="round"/>
<path d="M1521.4285714285713 1097.3809523809523
L1559.5238095238096 1097.3809523809523
" style="stroke: rgb(0, 132, 132); fill: none; stroke-width: 7.800000000000001" stroke-linecap="round"/>
<path d="M1588.095238095238 1066.4285714285713
L1571.4285714285713 1066.4285714285713
" style="stroke: rgb(0, 132, 132); fill: none; stroke-width: 7.800000000000001" stroke-linecap="round"/>
<path d="M1571.4285714285713 1092.6190476190477
L1571.4285714285713 1042.6190476190477
L1595.2380952380952 1042.6190476190477
" style="stroke: rgb(0, 132, 132); fill: none; stroke-width: 7.800000000000001" stroke-linecap="round"/>
<path d="M1638.095238095238 1092.6190476190477
L1614.2857142857142 1092.6190476190477
L1614.2857142857142 1042.6190476190477
" style="stroke: rgb(0, 132, 132); fill: none; stroke-width: 7.800000000000001" stroke-linecap="round"/>
<path d="M1652.3809523809523 1078.3333333333333
L1676.1904761904761 1078.3333333333333
" style="stroke: rgb(0, 132, 132); fill: none; stroke-width: 7.800000000000001" stroke-linecap="round"/>
<path d="M1647.6190476190477 1092.6190476190477
L1664.2857142857142 1042.6190476190477
L1680.952380952381 1092.6190476190477
" style="stroke: rgb(0, 132, 132); fill: none; stroke-width: 7.800000000000001" stroke-linecap="round"/>
<path d="M1723.8095238095239 1045
L1719.047619047619 1042.6190476190477
L1711.904761904762 1042.6190476190477
L1704.7619047619048 1045
L1700 1049.7619047619048
L1697.6190476190477 1054.5238095238096
L1695.2380952380952 1064.047619047619
L1695.2380952380952 1071.1904761904761
L1697.6190476190477 1080.7142857142858
L1700 1085.4761904761904
L1704.7619047619048 1090.2380952380952
L1711.904761904762 1092.6190476190477
L1716.6666666666667 1092.6190476190477
L1723.8095238095239 1090.2380952380952
L1726.1904761904761 1087.857142857143
L1726.1904761904761 1071.1904761904761
L1716.6666666666667 1071.1904761904761
" style="stroke: rgb(0, 132, 132); fill: none; stroke-width: 7.800000000000001" stroke-linecap="round"/>
<path d="M1550 1350
L1550 1400
L1600 1400
L1550 1450
L1500 1400
L1550 1400
" style="stroke: rgb(132, 0, 0); fill: none; stroke-width: 6" stroke-linecap="round"/>
<path d="M1511.904761904762 1475
L1507.142857142857 1472.6190476190477
L1500 1472.6190476190477
L1492.857142857143 1475
L1488.095238095238 1479.7619047619048
L1485.7142857142858 1484.5238095238096
L1483.3333333333333 1494.047619047619
L1483.3333333333333 1501.1904761904761
L1485.7142857142858 1510.7142857142858
L1488.095238095238 1515.4761904761904
L1492.857142857143 1520.2380952380952
L1500 1522.6190476190477
L1504.7619047619048 1522.6190476190477
L1511.904761904762 1520.2380952380952
L1514.2857142857142 1517.857142857143
L1514.2857142857142 1501.1904761904761
L1504.7619047619048 1501.1904761904761
" style="stroke: rgb(0, 132, 132); fill: none; stroke-width: 7.800000000000001" stroke-linecap="round"/>
<path d="M1535.7142857142858 1522.6190476190477
L1535.7142857142858 1472.6190476190477
L1564.2857142857142 1522.6190476190477
L1564.2857142857142 1472.6190476190477
" style="stroke: rgb(0, 132, 132); fill: none; stroke-width: 7.800000000000001" stroke-linecap="round"/>
<path d="M1588.095238095238 1522.6190476190477
L1588.095238095238 1472.6190476190477
L1600 1472.6190476190477
L1607.142857142857 1475
L1611.904761904762 1479.7619047619048
L1614.2857142857142 1484.5238095238096
L1616.6666666666667 1494.047619047619
L1616.6666666666667 1501.1904761904761
L1614.2857142857142 1510.7142857142858
L1611.904761904762 1515.4761904761904
L1607.142857142857 1520.2380952380952
L1600 1522.6190476190477
L1588.095238095238 1522.6190476190477
" style="stroke: rgb(0, 132, 132); fill: none; stroke-width: 7.800000000000001" stroke-linecap="round"/>
<path d="M4050 3650
L4050 4750
L6300 4750
L6300 3650
L4050 3650
" style="stroke: rgb(132, 0, 132); fill: none; stroke-width: 6" stroke-linecap="round"/>
<path d="M4067.285714285714 3643.1428571428573
L4067.285714285714 3583.1428571428573
" style="stroke: rgb(0, 132, 132); fill: none; stroke-width: 7.800000000000001" stroke-linecap="round"/>
<path d="M4101.571428571428 3643.1428571428573
L4075.8571428571427 3608.8571428571427
" style="stroke: rgb(0, 132, 132); fill: none; stroke-width: 7.800000000000001" stroke-linecap="round"/>
<path d="M4101.571428571428 3583.1428571428573
L4067.285714285714 3617.4285714285716
" style="stroke: rgb(0, 132, 132); fill: none; stroke-width: 7.800000000000001" stroke-linecap="round"/>
<path d="M4150.142857142857 3640.285714285714
L4144.428571428572 3643.1428571428573
L4133 3643.1428571428573
L4127.285714285715 3640.285714285714
L4124.428571428572 3634.5714285714284
L4124.428571428572 3611.714285714286
L4127.285714285715 3606
L4133 3603.1428571428573
L4144.428571428572 3603.1428571428573
L4150.142857142857 3606
L4153 3611.714285714286
L4153 3617.4285714285716
L4124.428571428572 3623.1428571428573
" style="stroke: rgb(0, 132, 132); fill: none; stroke-width: 7.800000000000001" stroke-linecap="round"/>
<path d="M4173 3603.1428571428573
L4187.285714285715 3643.1428571428573
" style="stroke: rgb(0, 132, 132); fill: none; stroke-width: 7.800000000000001" stroke-linecap="round"/>
<path d="M4201.571428571428 3603.1428571428573
L4187.285714285715 3643.1428571428573
L4181.571428571428 3657.4285714285716
L4178.714285714285 3660.285714285714
L4173 3663.1428571428573
" style="stroke: rgb(0, 132, 132); fill: none; stroke-width: 7.800000000000001" stroke-linecap="round"/>
<path d="M4224.428571428572 3643.1428571428573
L4224.428571428572 3583.1428571428573
L4244.428571428572 3626
L4264.428571428572 3583.1428571428573
L4264.428571428572 3643.1428571428573
" style="stroke: rgb(0, 132, 132); fill: none; stroke-width: 7.800000000000001" stroke-linecap="round"/>
<path d="M4301.571428571428 3643.1428571428573
L4295.857142857143 3640.285714285714
L4293 3637.4285714285716
L4290.142857142857 3631.714285714286
L4290.142857142857 3614.5714285714284
L4293 3608.8571428571427
L4295.857142857143 3606
L4301.571428571428 3603.1428571428573
L4310.142857142857 3603.1428571428573
L4315.857142857143 3606
L4318.714285714285 3608.8571428571427
L4321.571428571428 3614.5714285714284
L4321.571428571428 3631.714285714286
L4318.714285714285 3637.4285714285716
L4315.857142857143 3640.285714285714
L4310.142857142857 3643.1428571428573
L4301.571428571428 3643.1428571428573
" style="stroke: rgb(0, 132, 132); fill: none; stroke-width: 7.800000000000001" stroke-linecap="round"/>
<path d="M4373 3643.1428571428573
L4373 3583.1428571428573
" style="stroke: rgb(0, 132, 132); fill: none; stroke-width: 7.800000000000001" stroke-linecap="round"/>
<path d="M4373 3640.285714285714
L4367.285714285714 3643.1428571428573
L4355.857142857143 3643.1428571428573
L4350.142857142857 3640.285714285714
L4347.285714285714 3637.4285714285716
L4344.428571428572 3631.714285714286
L4344.428571428572 3614.5714285714284
L4347.285714285714 3608.8571428571427
L4350.142857142857 3606
L4355.857142857143 3603.1428571428573
L4367.285714285714 3603.1428571428573
L4373 3606
" style="stroke: rgb(0, 132, 132); fill: none; stroke-width: 7.800000000000001" stroke-linecap="round"/>
<path d="M4427.285714285714 3603.1428571428573
L4427.285714285714 3643.1428571428573
" style="stroke: rgb(0, 132, 132); fill: none; stroke-width: 7.800000000000001" stroke-linecap="round"/>
<path d="M4401.571428571428 3603.1428571428573
L4401.571428571428 3634.5714285714284
L4404.428571428572 3640.285714285714
L4410.142857142857 3643.1428571428573
L4418.714285714285 3643.1428571428573
L4424.428571428572 3640.285714285714
L4427.285714285714 3637.4285714285716
" style="stroke: rgb(0, 132, 132); fill: none; stroke-width: 7.800000000000001" stroke-linecap="round"/>
<path d="M4464.428571428572 3643.1428571428573
L4458.714285714285 3640.285714285714
L4455.857142857143 3634.5714285714284
L4455.857142857143 3583.1428571428573
" style="stroke: rgb(0, 132, 132); fill: none; stroke-width: 7.800000000000001" stroke-linecap="round"/>
<path d="M4510.142857142857 3640.285714285714
L4504.428571428572 3643.1428571428573
L4493 3643.1428571428573
L4487.285714285714 3640.285714285714
L4484.428571428572 3634.5714285714284
L4484.428571428572 3611.714285714286
L4487.285714285714 3606
L4493 3603.1428571428573
L4504.428571428572 3603.1428571428573
L4510.142857142857 3606
L4513 3611.714285714286
L4513 3617.4285714285716
L4484.428571428572 3623.1428571428573
" style="stroke: rgb(0, 132, 132); fill: none; stroke-width: 7.800000000000001" stroke-linecap="round"/>
<path d="M4538.714285714285 3620.285714285714
L4584.428571428572 3620.285714285714
" style="stroke: rgb(0, 132, 132); fill: none; stroke-width: 7.800000000000001" stroke-linecap="round"/>
<path d="M4641.571428571428 3643.1428571428573
L4613 3643.1428571428573
L4613 3583.1428571428573
" style="stroke: rgb(0, 132, 132); fill: none; stroke-width: 7.800000000000001" stroke-linecap="round"/>
<path d="M4053 4816.857142857143
L4098.714285714285 4816.857142857143
" style="stroke: rgb(132, 132, 0); fill: none; stroke-width: 7.800000000000001" stroke-linecap="round"/>
<path d="M4113 4811.142857142857
L4113 4751.142857142857
" style="stroke: rgb(132, 132, 0); fill: none; stroke-width: 7.800000000000001" stroke-linecap="round"/>
<path d="M4118.714285714285 4788.285714285715
L4135.857142857143 4811.142857142857
" style="stroke: rgb(132, 132, 0); fill: none; stroke-width: 7.800000000000001" stroke-linecap="round"/>
<path d="M4135.857142857143 4771.142857142857
L4113 4794
" style="stroke: rgb(132, 132, 0); fill: none; stroke-width: 7.800000000000001" stroke-linecap="round"/>
<path d="M4184.428571428572 4808.285714285715
L4178.714285714285 4811.142857142857
L4167.285714285715 4811.142857142857
L4161.571428571428 4808.285714285715
L4158.714285714285 4802.571428571428
L4158.714285714285 4779.714285714285
L4161.571428571428 4774
L4167.285714285715 4771.142857142857
L4178.714285714285 4771.142857142857
L4184.428571428572 4774
L4187.285714285715 4779.714285714285
L4187.285714285715 4785.428571428572
L4158.714285714285 4791.142857142857
" style="stroke: rgb(132, 132, 0); fill: none; stroke-width: 7.800000000000001" stroke-linecap="round"/>
<path d="M4207.285714285715 4771.142857142857
L4221.571428571428 4811.142857142857
" style="stroke: rgb(132, 132, 0); fill: none; stroke-width: 7.800000000000001" stroke-linecap="round"/>
<path d="M4235.857142857143 4771.142857142857
L4221.571428571428 4811.142857142857
L4215.857142857143 4825.428571428572
L4213 4828.285714285715
L4207.285714285715 4831.142857142857
" style="stroke: rgb(132, 132, 0); fill: none; stroke-width: 7.800000000000001" stroke-linecap="round"/>
<path d="M4258.714285714285 4811.142857142857
L4258.714285714285 4771.142857142857
" style="stroke: rgb(132, 132, 0); fill: none; stroke-width: 7.800000000000001" stroke-linecap="round"/>
<path d="M4258.714285714285 4776.857142857143
L4261.571428571428 4774
L4267.285714285715 4771.142857142857
L4275.857142857143 4771.142857142857
L4281.571428571428 4774
L4284.428571428572 4779.714285714285
L4284.428571428572 4811.142857142857
" style="stroke: rgb(132, 132, 0); fill: none; stroke-width: 7.800000000000001" stroke-linecap="round"/>
<path d="M4284.428571428572 4779.714285714285
L4287.285714285715 4774
L4293 4771.142857142857
L4301.571428571428 4771.142857142857
L4307.285714285714 4774
L4310.142857142857 4779.714285714285
L4310.142857142857 4811.142857142857
" style="stroke: rgb(132, 132, 0); fill: none; stroke-width: 7.800000000000001" stroke-linecap="round"/>
<path d="M4347.285714285714 4811.142857142857
L4341.571428571428 4808.285714285715
L4338.714285714285 4805.428571428572
L4335.857142857143 4799.714285714285
L4335.857142857143 4782.571428571428
L4338.714285714285 4776.857142857143
L4341.571428571428 4774
L4347.285714285714 4771.142857142857
L4355.857142857143 4771.142857142857
L4361.571428571428 4774
L4364.428571428572 4776.857142857143
L4367.285714285714 4782.571428571428
L4367.285714285714 4799.714285714285
L4364.428571428572 4805.428571428572
L4361.571428571428 4808.285714285715
L4355.857142857143 4811.142857142857
L4347.285714285714 4811.142857142857
" style="stroke: rgb(132, 132, 0); fill: none; stroke-width: 7.800000000000001" stroke-linecap="round"/>
<path d="M4418.714285714285 4811.142857142857
L4418.714285714285 4751.142857142857
" style="stroke: rgb(132, 132, 0); fill: none; stroke-width: 7.800000000000001" stroke-linecap="round"/>
<path d="M4418.714285714285 4808.285714285715
L4413 4811.142857142857
L4401.571428571428 4811.142857142857
L4395.857142857143 4808.285714285715
L4393 4805.428571428572
L4390.142857142857 4799.714285714285
L4390.142857142857 4782.571428571428
L4393 4776.857142857143
L4395.857142857143 4774
L4401.571428571428 4771.142857142857
L4413 4771.142857142857
L4418.714285714285 4774
" style="stroke: rgb(132, 132, 0); fill: none; stroke-width: 7.800000000000001" stroke-linecap="round"/>
<path d="M4473 4771.142857142857
L4473 4811.142857142857
" style="stroke: rgb(132, 132, 0); fill: none; stroke-width: 7.800000000000001" stroke-linecap="round"/>
<path d="M4447.285714285714 4771.142857142857
L4447.285714285714 4802.571428571428
L4450.142857142857 4808.285714285715
L4455.857142857143 4811.142857142857
L4464.428571428572 4811.142857142857
L4470.142857142857 4808.285714285715
L4473 4805.428571428572
" style="stroke: rgb(132, 132, 0); fill: none; stroke-width: 7.800000000000001" stroke-linecap="round"/>
<path d="M4510.142857142857 4811.142857142857
L4504.428571428572 4808.285714285715
L4501.571428571428 4802.571428571428
L4501.571428571428 4751.142857142857
" style="stroke: rgb(132, 132, 0); fill: none; stroke-width: 7.800000000000001" stroke-linecap="round"/>
<path d="M4555.857142857143 4808.285714285715
L4550.142857142857 4811.142857142857
L4538.714285714285 4811.142857142857
L4533 4808.285714285715
L4530.142857142857 4802.571428571428
L4530.142857142857 4779.714285714285
L4533 4774
L4538.714285714285 4771.142857142857
L4550.142857142857 4771.142857142857
L4555.857142857143 4774
L4558.714285714285 4779.714285714285
L4558.714285714285 4785.428571428572
L4530.142857142857 4791.142857142857
" style="stroke: rgb(132, 132, 0); fill: none; stroke-width: 7.800000000000001" stroke-linecap="round"/>
<path d="M4570.142857142857 4816.857142857143
L4615.857142857143 4816.857142857143
" style="stroke: rgb(132, 132, 0); fill: none; stroke-width: 7.800000000000001" stroke-linecap="round"/>
<path d="M4638.714285714285 4811.142857142857
L4633 4808.285714285715
L4630.142857142857 4802.571428571428
L4630.142857142857 4751.142857142857
" style="stroke: rgb(132, 132, 0); fill: none; stroke-width: 7.800000000000001" stroke-linecap="round"/>
<path d="M4661.571428571428 4805.428571428572
L4664.428571428572 4808.285714285715
L4661.571428571428 4811.142857142857
L4658.714285714285 4808.285714285715
L4661.571428571428 4805.428571428572
L4661.571428571428 4811.142857142857
" style="stroke: rgb(132, 132, 0); fill: none; stroke-width: 7.800000000000001" stroke-linecap="round"/>
<path d="M4687.285714285714 4808.285714285715
L4693 4811.142857142857
L4704.428571428572 4811.142857142857
L4710.142857142857 4808.285714285715
L4713 4802.571428571428
L4713 4799.714285714285
L4710.142857142857 4794
L4704.428571428572 4791.142857142857
L4695.857142857143 4791.142857142857
L4690.142857142857 4788.285714285715
L4687.285714285714 4782.571428571428
L4687.285714285714 4779.714285714285
L4690.142857142857 4774
L4695.857142857143 4771.142857142857
L4704.428571428572 4771.142857142857
L4710.142857142857 4774
" style="stroke: rgb(132, 132, 0); fill: none; stroke-width: 7.800000000000001" stroke-linecap="round"/>
<path d="M4764.428571428572 4808.285714285715
L4758.714285714285 4811.142857142857
L4747.285714285714 4811.142857142857
L4741.571428571428 4808.285714285715
L4738.714285714285 4805.428571428572
L4735.857142857143 4799.714285714285
L4735.857142857143 4782.571428571428
L4738.714285714285 4776.857142857143
L4741.571428571428 4774
L4747.285714285714 4771.142857142857
L4758.714285714285 4771.142857142857
L4764.428571428572 4774
" style="stroke: rgb(132, 132, 0); fill: none; stroke-width: 7.800000000000001" stroke-linecap="round"/>
<path d="M4790.142857142857 4811.142857142857
L4790.142857142857 4751.142857142857
" style="stroke: rgb(132, 132, 0); fill: none; stroke-width: 7.800000000000001" stroke-linecap="round"/>
<path d="M4815.857142857143 4811.142857142857
L4815.857142857143 4779.714285714285
L4813 4774
L4807.285714285714 4771.142857142857
L4798.714285714285 4771.142857142857
L4793 4774
L4790.142857142857 4776.857142857143
" style="stroke: rgb(132, 132, 0); fill: none; stroke-width: 7.800000000000001" stroke-linecap="round"/>
<circle cx="1850" cy="725" r="25"  style="stroke: rgb(132, 0, 0); fill: none; stroke-width: 6" stroke-linecap="round"/>
<path d="M1850 800
L1850 750
" style="stroke: rgb(132, 0, 0); fill: none; stroke-width: 6" stroke-linecap="round"/>
<path d="M1783.3333333333333 622.6190476190476
L1800 672.6190476190476
L1816.6666666666667 622.6190476190476
" style="stroke: rgb(0, 132, 132); fill: none; stroke-width: 7.800000000000001" stroke-linecap="round"/>
<path d="M1833.3333333333333 672.6190476190476
L1833.3333333333333 622.6190476190476
L1845.2380952380952 622.6190476190476
L1852.3809523809523 625
L1857.142857142857 629.7619047619048
L1859.5238095238096 634.5238095238095
L1861.904761904762 644.047619047619
L1861.904761904762 651.1904761904761
L1859.5238095238096 660.7142857142857
L1857.142857142857 665.4761904761905
L1852.3809523809523 670.2380952380952
L1845.2380952380952 672.6190476190476
L1833.3333333333333 672.6190476190476
" style="stroke: rgb(0, 132, 132); fill: none; stroke-width: 7.800000000000001" stroke-linecap="round"/>
<path d="M1883.3333333333333 672.6190476190476
L1883.3333333333333 622.6190476190476
L1895.2380952380952 622.6190476190476
L1902.3809523809523 625
L1907.142857142857 629.7619047619048
L1909.5238095238096 634.5238095238095
L1911.904761904762 644.047619047619
L1911.904761904762 651.1904761904761
L1909.5238095238096 660.7142857142857
L1907.142857142857 665.4761904761905
L1902.3809523809523 670.2380952380952
L1895.2380952380952 672.6190476190476
L1883.3333333333333 672.6190476190476
" style="stroke: rgb(0, 132, 132); fill: none; stroke-width: 7.800000000000001" stroke-linecap="round"/>
<path d="M1550 800
L1550 800
" style="stroke: rgb(132, 0, 0); fill: none; stroke-width: 6" stroke-linecap="round"/>
<path d="M1550 800
L1550 750
L1475 700
L1550 650
L1625 700
L1550 750
" style="stroke: rgb(132, 0, 0); fill: none; stroke-width: 6" stroke-linecap="round"/>
<path d="M1376.1904761904761 642.6190476190476
L1376.1904761904761 592.6190476190476
L1395.2380952380952 592.6190476190476
L1400 595
L1402.3809523809523 597.3809523809524
L1404.7619047619048 602.1428571428571
L1404.7619047619048 609.2857142857143
L1402.3809523809523 614.047619047619
L1400 616.4285714285714
L1395.2380952380952 618.8095238095239
L1376.1904761904761 618.8095238095239
" style="stroke: rgb(0, 132, 132); fill: none; stroke-width: 7.800000000000001" stroke-linecap="round"/>
<path d="M1421.4285714285716 592.6190476190476
L1433.3333333333333 642.6190476190476
L1442.857142857143 606.9047619047619
L1452.3809523809523 642.6190476190476
L1464.2857142857142 592.6190476190476
" style="stroke: rgb(0, 132, 132); fill: none; stroke-width: 7.800000000000001" stroke-linecap="round"/>
<path d="M1511.904761904762 642.6190476190476
L1495.2380952380952 618.8095238095239
" style="stroke: rgb(0, 132, 132); fill: none; stroke-width: 7.800000000000001" stroke-linecap="round"/>
<path d="M1483.3333333333333 642.6190476190476
L1483.3333333333333 592.6190476190476
L1502.3809523809523 592.6190476190476
L1507.142857142857 595
L1509.5238095238096 597.3809523809524
L1511.904761904762 602.1428571428571
L1511.904761904762 609.2857142857143
L1509.5238095238096 614.047619047619
L1507.142857142857 616.4285714285714
L1502.3809523809523 618.8095238095239
L1483.3333333333333 618.8095238095239
" style="stroke: rgb(0, 132, 132); fill: none; stroke-width: 7.800000000000001" stroke-linecap="round"/>
<path d="M1521.4285714285713 647.3809523809524
L1559.5238095238096 647.3809523809524
" style="stroke: rgb(0, 132, 132); fill: none; stroke-width: 7.800000000000001" stroke-linecap="round"/>
<path d="M1588.095238095238 616.4285714285714
L1571.4285714285713 616.4285714285714
" style="stroke: rgb(0, 132, 132); fill: none; stroke-width: 7.800000000000001" stroke-linecap="round"/>
<path d="M1571.4285714285713 642.6190476190476
L1571.4285714285713 592.6190476190476
L1595.2380952380952 592.6190476190476
" style="stroke: rgb(0, 132, 132); fill: none; stroke-width: 7.800000000000001" stroke-linecap="round"/>
<path d="M1638.095238095238 642.6190476190476
L1614.2857142857142 642.6190476190476
L1614.2857142857142 592.6190476190476
" style="stroke: rgb(0, 132, 132); fill: none; stroke-width: 7.800000000000001" stroke-linecap="round"/>
<path d="M1652.3809523809523 628.3333333333334
L1676.1904761904761 628.3333333333334
" style="stroke: rgb(0, 132, 132); fill: none; stroke-width: 7.800000000000001" stroke-linecap="round"/>
<path d="M1647.6190476190477 642.6190476190476
L1664.2857142857142 592.6190476190476
L1680.952380952381 642.6190476190476
" style="stroke: rgb(0, 132, 132); fill: none; stroke-width: 7.800000000000001" stroke-linecap="round"/>
<path d="M1723.8095238095239 595
L1719.047619047619 592.6190476190476
L1711.904761904762 592.6190476190476
L1704.7619047619048 595
L1700 599.7619047619048
L1697.6190476190477 604.5238095238095
L1695.2380952380952 614.047619047619
L1695.2380952380952 621.1904761904761
L1697.6190476190477 630.7142857142857
L1700 635.4761904761905
L1704.7619047619048 640.2380952380952
L1711.904761904762 642.6190476190476
L1716.6666666666667 642.6190476190476
L1723.8095238095239 640.2380952380952
L1726.1904761904761 637.8571428571429
L1726.1904761904761 621.1904761904761
L1716.6666666666667 621.1904761904761
" style="stroke: rgb(0, 132, 132); fill: none; stroke-width: 7.800000000000001" stroke-linecap="round"/>
<path d="M7150 3650
L7150 4750
L9400 4750
L9400 3650
L7150 3650
" style="stroke: rgb(132, 0, 132); fill: none; stroke-width: 6" stroke-linecap="round"/>
<path d="M7167.285714285715 3643.1428571428573
L7167.285714285715 3583.1428571428573
" style="stroke: rgb(0, 132, 132); fill: none; stroke-width: 7.800000000000001" stroke-linecap="round"/>
<path d="M7201.571428571428 3643.1428571428573
L7175.857142857143 3608.8571428571427
" style="stroke: rgb(0, 132, 132); fill: none; stroke-width: 7.800000000000001" stroke-linecap="round"/>
<path d="M7201.571428571428 3583.1428571428573
L7167.285714285715 3617.4285714285716
" style="stroke: rgb(0, 132, 132); fill: none; stroke-width: 7.800000000000001" stroke-linecap="round"/>
<path d="M7250.142857142857 3640.285714285714
L7244.428571428572 3643.1428571428573
L7233 3643.1428571428573
L7227.285714285715 3640.285714285714
L7224.428571428572 3634.5714285714284
L7224.428571428572 3611.714285714286
L7227.285714285715 3606
L7233 3603.1428571428573
L7244.428571428572 3603.1428571428573
L7250.142857142857 3606
L7253 3611.714285714286
L7253 3617.4285714285716
L7224.428571428572 3623.1428571428573
" style="stroke: rgb(0, 132, 132); fill: none; stroke-width: 7.800000000000001" stroke-linecap="round"/>
<path d="M7273 3603.1428571428573
L7287.285714285715 3643.1428571428573
" style="stroke: rgb(0, 132, 132); fill: none; stroke-width: 7.800000000000001" stroke-linecap="round"/>
<path d="M7301.571428571428 3603.1428571428573
L7287.285714285715 3643.1428571428573
L7281.571428571428 3657.4285714285716
L7278.714285714285 3660.285714285714
L7273 3663.1428571428573
" style="stroke: rgb(0, 132, 132); fill: none; stroke-width: 7.800000000000001" stroke-linecap="round"/>
<path d="M7324.428571428572 3643.1428571428573
L7324.428571428572 3583.1428571428573
L7344.428571428572 3626
L7364.428571428572 3583.1428571428573
L7364.428571428572 3643.1428571428573
" style="stroke: rgb(0, 132, 132); fill: none; stroke-width: 7.800000000000001" stroke-linecap="round"/>
<path d="M7401.571428571428 3643.1428571428573
L7395.857142857143 3640.285714285714
L7393 3637.4285714285716
L7390.142857142857 3631.714285714286
L7390.142857142857 3614.5714285714284
L7393 3608.8571428571427
L7395.857142857143 3606
L7401.571428571428 3603.1428571428573
L7410.142857142857 3603.1428571428573
L7415.857142857143 3606
L7418.714285714285 3608.8571428571427
L7421.571428571428 3614.5714285714284
L7421.571428571428 3631.714285714286
L7418.714285714285 3637.4285714285716
L7415.857142857143 3640.285714285714
L7410.142857142857 3643.1428571428573
L7401.571428571428 3643.1428571428573
" style="stroke: rgb(0, 132, 132); fill: none; stroke-width: 7.800000000000001" stroke-linecap="round"/>
<path d="M7473 3643.1428571428573
L7473 3583.1428571428573
" style="stroke: rgb(0, 132, 132); fill: none; stroke-width: 7.800000000000001" stroke-linecap="round"/>
<path d="M7473 3640.285714285714
L7467.285714285714 3643.1428571428573
L7455.857142857143 3643.1428571428573
L7450.142857142857 3640.285714285714
L7447.285714285714 3637.4285714285716
L7444.428571428572 3631.714285714286
L7444.428571428572 3614.5714285714284
L7447.285714285714 3608.8571428571427
L7450.142857142857 3606
L7455.857142857143 3603.1428571428573
L7467.285714285714 3603.1428571428573
L7473 3606
" style="stroke: rgb(0, 132, 132); fill: none; stroke-width: 7.800000000000001" stroke-linecap="round"/>
<path d="M7527.285714285714 3603.1428571428573
L7527.285714285714 3643.1428571428573
" style="stroke: rgb(0, 132, 132); fill: none; stroke-width: 7.800000000000001" stroke-linecap="round"/>
<path d="M7501.571428571428 3603.1428571428573
L7501.571428571428 3634.5714285714284
L7504.428571428572 3640.285714285714
L7510.142857142857 3643.1428571428573
L7518.714285714285 3643.1428571428573
L7524.428571428572 3640.285714285714
L7527.285714285714 3637.4285714285716
" style="stroke: rgb(0, 132, 132); fill: none; stroke-width: 7.800000000000001" stroke-linecap="round"/>
<path d="M7564.428571428572 3643.1428571428573
L7558.714285714285 3640.285714285714
L7555.857142857143 3634.5714285714284
L7555.857142857143 3583.1428571428573
" style="stroke: rgb(0, 132, 132); fill: none; stroke-width: 7.800000000000001" stroke-linecap="round"/>
<path d="M7610.142857142857 3640.285714285714
L7604.428571428572 3643.1428571428573
L7593 3643.1428571428573
L7587.285714285714 3640.285714285714
L7584.428571428572 3634.5714285714284
L7584.428571428572 3611.714285714286
L7587.285714285714 3606
L7593 3603.1428571428573
L7604.428571428572 3603.1428571428573
L7610.142857142857 3606
L7613 3611.714285714286
L7613 3617.4285714285716
L7584.428571428572 3623.1428571428573
" style="stroke: rgb(0, 132, 132); fill: none; stroke-width: 7.800000000000001" stroke-linecap="round"/>
<path d="M7638.714285714285 3620.285714285714
L7684.428571428572 3620.285714285714
" style="stroke: rgb(0, 132, 132); fill: none; stroke-width: 7.800000000000001" stroke-linecap="round"/>
<path d="M7747.285714285714 3643.1428571428573
L7727.285714285714 3614.5714285714284
" style="stroke: rgb(0, 132, 132); fill: none; stroke-width: 7.800000000000001" stroke-linecap="round"/>
<path d="M7713 3643.1428571428573
L7713 3583.1428571428573
L7735.857142857143 3583.1428571428573
L7741.571428571428 3586
L7744.428571428572 3588.8571428571427
L7747.285714285714 3594.5714285714284
L7747.285714285714 3603.1428571428573
L7744.428571428572 3608.8571428571427
L7741.571428571428 3611.714285714286
L7735.857142857143 3614.5714285714284
L7713 3614.5714285714284
" style="stroke: rgb(0, 132, 132); fill: none; stroke-width: 7.800000000000001" stroke-linecap="round"/>
<path d="M7153 4816.857142857143
L7198.714285714285 4816.857142857143
" style="stroke: rgb(132, 132, 0); fill: none; stroke-width: 7.800000000000001" stroke-linecap="round"/>
<path d="M7213 4811.142857142857
L7213 4751.142857142857
" style="stroke: rgb(132, 132, 0); fill: none; stroke-width: 7.800000000000001" stroke-linecap="round"/>
<path d="M7218.714285714285 4788.285714285715
L7235.857142857143 4811.142857142857
" style="stroke: rgb(132, 132, 0); fill: none; stroke-width: 7.800000000000001" stroke-linecap="round"/>
<path d="M7235.857142857143 4771.142857142857
L7213 4794
" style="stroke: rgb(132, 132, 0); fill: none; stroke-width: 7.800000000000001" stroke-linecap="round"/>
<path d="M7284.428571428572 4808.285714285715
L7278.714285714285 4811.142857142857
L7267.285714285715 4811.142857142857
L7261.571428571428 4808.285714285715
L7258.714285714285 4802.571428571428
L7258.714285714285 4779.714285714285
L7261.571428571428 4774
L7267.285714285715 4771.142857142857
L7278.714285714285 4771.142857142857
L7284.428571428572 4774
L7287.285714285715 4779.714285714285
L7287.285714285715 4785.428571428572
L7258.714285714285 4791.142857142857
" style="stroke: rgb(132, 132, 0); fill: none; stroke-width: 7.800000000000001" stroke-linecap="round"/>
<path d="M7307.285714285715 4771.142857142857
L7321.571428571428 4811.142857142857
" style="stroke: rgb(132, 132, 0); fill: none; stroke-width: 7.800000000000001" stroke-linecap="round"/>
<path d="M7335.857142857143 4771.142857142857
L7321.571428571428 4811.142857142857
L7315.857142857143 4825.428571428572
L7313 4828.285714285715
L7307.285714285715 4831.142857142857
" style="stroke: rgb(132, 132, 0); fill: none; stroke-width: 7.800000000000001" stroke-linecap="round"/>
<path d="M7358.714285714285 4811.142857142857
L7358.714285714285 4771.142857142857
" style="stroke: rgb(132, 132, 0); fill: none; stroke-width: 7.800000000000001" stroke-linecap="round"/>
<path d="M7358.714285714285 4776.857142857143
L7361.571428571428 4774
L7367.285714285715 4771.142857142857
L7375.857142857143 4771.142857142857
L7381.571428571428 4774
L7384.428571428572 4779.714285714285
L7384.428571428572 4811.142857142857
" style="stroke: rgb(132, 132, 0); fill: none; stroke-width: 7.800000000000001" stroke-linecap="round"/>
<path d="M7384.428571428572 4779.714285714285
L7387.285714285715 4774
L7393 4771.142857142857
L7401.571428571428 4771.142857142857
L7407.285714285714 4774
L7410.142857142857 4779.714285714285
L7410.142857142857 4811.142857142857
" style="stroke: rgb(132, 132, 0); fill: none; stroke-width: 7.800000000000001" stroke-linecap="round"/>
<path d="M7447.285714285714 4811.142857142857
L7441.571428571428 4808.285714285715
L7438.714285714285 4805.428571428572
L7435.857142857143 4799.714285714285
L7435.857142857143 4782.571428571428
L7438.714285714285 4776.857142857143
L7441.571428571428 4774
L7447.285714285714 4771.142857142857
L7455.857142857143 4771.142857142857
L7461.571428571428 4774
L7464.428571428572 4776.857142857143
L7467.285714285714 4782.571428571428
L7467.285714285714 4799.714285714285
L7464.428571428572 4805.428571428572
L7461.571428571428 4808.285714285715
L7455.857142857143 4811.142857142857
L7447.285714285714 4811.142857142857
" style="stroke: rgb(132, 132, 0); fill: none; stroke-width: 7.800000000000001" stroke-linecap="round"/>
<path d="M7518.714285714285 4811.142857142857
L7518.714285714285 4751.142857142857
" style="stroke: rgb(132, 132, 0); fill: none; stroke-width: 7.800000000000001" stroke-linecap="round"/>
<path d="M7518.714285714285 4808.285714285715
L7513 4811.142857142857
L7501.571428571428 4811.142857142857
L7495.857142857143 4808.285714285715
L7493 4805.428571428572
L7490.142857142857 4799.714285714285
L7490.142857142857 4782.571428571428
L7493 4776.857142857143
L7495.857142857143 4774
L7501.571428571428 4771.142857142857
L7513 4771.142857142857
L7518.714285714285 4774
" style="stroke: rgb(132, 132, 0); fill: none; stroke-width: 7.800000000000001" stroke-linecap="round"/>
<path d="M7573 4771.142857142857
L7573 4811.142857142857
" style="stroke: rgb(132, 132, 0); fill: none; stroke-width: 7.800000000000001" stroke-linecap="round"/>
<path d="M7547.285714285714 4771.142857142857
L7547.285714285714 4802.571428571428
L7550.142857142857 4808.285714285715
L7555.857142857143 4811.142857142857
L7564.428571428572 4811.142857142857
L7570.142857142857 4808.285714285715
L7573 4805.428571428572
" style="stroke: rgb(132, 132, 0); fill: none; stroke-width: 7.800000000000001" stroke-linecap="round"/>
<path d="M7610.142857142857 4811.142857142857
L7604.428571428572 4808.285714285715
L7601.571428571428 4802.571428571428
L7601.571428571428 4751.142857142857
" style="stroke: rgb(132, 132, 0); fill: none; stroke-width: 7.800000000000001" stroke-linecap="round"/>
<path d="M7655.857142857143 4808.285714285715
L7650.142857142857 4811.142857142857
L7638.714285714285 4811.142857142857
L7633 4808.285714285715
L7630.142857142857 4802.571428571428
L7630.142857142857 4779.714285714285
L7633 4774
L7638.714285714285 4771.142857142857
L7650.142857142857 4771.142857142857
L7655.857142857143 4774
L7658.714285714285 4779.714285714285
L7658.714285714285 4785.428571428572
L7630.142857142857 4791.142857142857
" style="stroke: rgb(132, 132, 0); fill: none; stroke-width: 7.800000000000001" stroke-linecap="round"/>
<path d="M7670.142857142857 4816.857142857143
L7715.857142857143 4816.857142857143
" style="stroke: rgb(132, 132, 0); fill: none; stroke-width: 7.800000000000001" stroke-linecap="round"/>
<path d="M7730.142857142857 4811.142857142857
L7730.142857142857 4771.142857142857
" style="stroke: rgb(132, 132, 0); fill: none; stroke-width: 7.800000000000001" stroke-linecap="round"/>
<path d="M7730.142857142857 4782.571428571428
L7733 4776.857142857143
L7735.857142857143 4774
L7741.571428571428 4771.142857142857
L7747.285714285714 4771.142857142857
" style="stroke: rgb(132, 132, 0); fill: none; stroke-width: 7.800000000000001" stroke-linecap="round"/>
<path d="M7767.285714285714 4805.428571428572
L7770.142857142857 4808.285714285715
L7767.285714285714 4811.142857142857
L7764.428571428572 4808.285714285715
L7767.285714285714 4805.428571428572
L7767.285714285714 4811.142857142857
" style="stroke: rgb(132, 132, 0); fill: none; stroke-width: 7.800000000000001" stroke-linecap="round"/>
<path d="M7793 4808.285714285715
L7798.714285714285 4811.142857142857
L7810.142857142857 4811.142857142857
L7815.857142857143 4808.285714285715
L7818.714285714285 4802.571428571428
L7818.714285714285 4799.714285714285
L7815.857142857143 4794
L7810.142857142857 4791.142857142857
L7801.571428571428 4791.142857142857
L7795.857142857143 4788.285714285715
L7793 4782.571428571428
L7793 4779.714285714285
L7795.857142857143 4774
L7801.571428571428 4771.142857142857
L7810.142857142857 4771.142857142857
L7815.857142857143 4774
" style="stroke: rgb(132, 132, 0); fill: none; stroke-width: 7.800000000000001" stroke-linecap="round"/>
<path d="M7870.142857142857 4808.285714285715
L7864.428571428572 4811.142857142857
L7853 4811.142857142857
L7847.285714285714 4808.285714285715
L7844.428571428572 4805.428571428572
L7841.571428571428 4799.714285714285
L7841.571428571428 4782.571428571428
L7844.428571428572 4776.857142857143
L7847.285714285714 4774
L7853 4771.142857142857
L7864.428571428572 4771.142857142857
L7870.142857142857 4774
" style="stroke: rgb(132, 132, 0); fill: none; stroke-width: 7.800000000000001" stroke-linecap="round"/>
<path d="M7895.857142857143 4811.142857142857
L7895.857142857143 4751.142857142857
" style="stroke: rgb(132, 132, 0); fill: none; stroke-width: 7.800000000000001" stroke-linecap="round"/>
<path d="M7921.571428571428 4811.142857142857
L7921.571428571428 4779.714285714285
L7918.714285714285 4774
L7913 4771.142857142857
L7904.428571428572 4771.142857142857
L7898.714285714285 4774
L7895.857142857143 4776.857142857143
" style="stroke: rgb(132, 132, 0); fill: none; stroke-width: 7.800000000000001" stroke-linecap="round"/>
<path d="M1550 1350
L1550 1250
" style="stroke: rgb(0, 132, 0); fill: none; stroke-width: 6" stroke-linecap="round"/>
<path d="M1850 850
L1550 850
" style="stroke: rgb(0, 132, 0); fill: none; stroke-width: 6" stroke-linecap="round"/>
<path d="M1550 850
L1550 800
" style="stroke: rgb(0, 132, 0); fill: none; stroke-width: 6" stroke-linecap="round"/>
<path d="M2317.285714285714 3190.1428571428573
L2317.285714285714 3130.1428571428573
" style="stroke: rgb(0, 0, 194); fill: none; stroke-width: 7.800000000000001" stroke-linecap="round"/>
<path d="M2345.8571428571427 3190.1428571428573
L2345.8571428571427 3130.1428571428573
L2380.1428571428573 3190.1428571428573
L2380.1428571428573 3130.1428571428573
" style="stroke: rgb(0, 0, 194); fill: none; stroke-width: 7.800000000000001" stroke-linecap="round"/>
<path d="M2400.1428571428573 3130.1428571428573
L2434.4285714285716 3130.1428571428573
" style="stroke: rgb(0, 0, 194); fill: none; stroke-width: 7.800000000000001" stroke-linecap="round"/>
<path d="M2417.285714285714 3190.1428571428573
L2417.285714285714 3130.1428571428573
" style="stroke: rgb(0, 0, 194); fill: none; stroke-width: 7.800000000000001" stroke-linecap="round"/>
<path d="M2500.142857142857 3150.1428571428573
L2500.142857142857 3210.1428571428573
" style="stroke: rgb(0, 0, 194); fill: none; stroke-width: 7.800000000000001" stroke-linecap="round"/>
<path d="M2500.142857142857 3153
L2505.8571428571427 3150.1428571428573
L2517.285714285714 3150.1428571428573
L2523 3153
L2525.8571428571427 3155.8571428571427
L2528.714285714286 3161.5714285714284
L2528.714285714286 3178.714285714286
L2525.8571428571427 3184.4285714285716
L2523 3187.285714285714
L2517.285714285714 3190.1428571428573
L2505.8571428571427 3190.1428571428573
L2500.142857142857 3187.285714285714
" style="stroke: rgb(0, 0, 194); fill: none; stroke-width: 7.800000000000001" stroke-linecap="round"/>
<path d="M2554.4285714285716 3190.1428571428573
L2554.4285714285716 3150.1428571428573
" style="stroke: rgb(0, 0, 194); fill: none; stroke-width: 7.800000000000001" stroke-linecap="round"/>
<path d="M2554.4285714285716 3130.1428571428573
L2551.5714285714284 3133
L2554.4285714285716 3135.8571428571427
L2557.285714285714 3133
L2554.4285714285716 3130.1428571428573
L2554.4285714285716 3135.8571428571427
" style="stroke: rgb(0, 0, 194); fill: none; stroke-width: 7.800000000000001" stroke-linecap="round"/>
<path d="M2583 3150.1428571428573
L2583 3190.1428571428573
" style="stroke: rgb(0, 0, 194); fill: none; stroke-width: 7.800000000000001" stroke-linecap="round"/>
<path d="M2583 3155.8571428571427
L2585.8571428571427 3153
L2591.5714285714284 3150.1428571428573
L2600.142857142857 3150.1428571428573
L2605.8571428571427 3153
L2608.714285714286 3158.714285714286
L2608.714285714286 3190.1428571428573
" style="stroke: rgb(0, 0, 194); fill: none; stroke-width: 7.800000000000001" stroke-linecap="round"/>
<path d="M2691.5714285714284 3190.1428571428573
L2685.8571428571427 3187.285714285714
L2683 3184.4285714285716
L2680.142857142857 3178.714285714286
L2680.142857142857 3161.5714285714284
L2683 3155.8571428571427
L2685.8571428571427 3153
L2691.5714285714284 3150.1428571428573
L2700.142857142857 3150.1428571428573
L2705.8571428571427 3153
L2708.714285714286 3155.8571428571427
L2711.5714285714284 3161.5714285714284
L2711.5714285714284 3178.714285714286
L2708.714285714286 3184.4285714285716
L2705.8571428571427 3187.285714285714
L2700.142857142857 3190.1428571428573
L2691.5714285714284 3190.1428571428573
" style="stroke: rgb(0, 0, 194); fill: none; stroke-width: 7.800000000000001" stroke-linecap="round"/>
<path d="M2728.714285714286 3150.1428571428573
L2751.5714285714284 3150.1428571428573
" style="stroke: rgb(0, 0, 194); fill: none; stroke-width: 7.800000000000001" stroke-linecap="round"/>
<path d="M2737.285714285714 3190.1428571428573
L2737.285714285714 3138.714285714286
L2740.142857142857 3133
L2745.8571428571427 3130.1428571428573
L2751.5714285714284 3130.1428571428573
" style="stroke: rgb(0, 0, 194); fill: none; stroke-width: 7.800000000000001" stroke-linecap="round"/>
<path d="M2817.285714285714 3190.1428571428573
L2817.285714285714 3130.1428571428573
L2837.285714285714 3173
L2857.285714285714 3130.1428571428573
L2857.285714285714 3190.1428571428573
" style="stroke: rgb(0, 0, 194); fill: none; stroke-width: 7.800000000000001" stroke-linecap="round"/>
<path d="M2920.142857142857 3184.4285714285716
L2917.285714285714 3187.285714285714
L2908.714285714286 3190.1428571428573
L2903 3190.1428571428573
L2894.4285714285716 3187.285714285714
L2888.714285714286 3181.5714285714284
L2885.857142857143 3175.8571428571427
L2883 3164.4285714285716
L2883 3155.8571428571427
L2885.857142857143 3144.4285714285716
L2888.714285714286 3138.714285714286
L2894.4285714285716 3133
L2903 3130.1428571428573
L2908.714285714286 3130.1428571428573
L2917.285714285714 3133
L2920.142857142857 3135.8571428571427
" style="stroke: rgb(0, 0, 194); fill: none; stroke-width: 7.800000000000001" stroke-linecap="round"/>
<path d="M2945.857142857143 3190.1428571428573
L2945.857142857143 3130.1428571428573
L2968.714285714286 3130.1428571428573
L2974.4285714285716 3133
L2977.285714285714 3135.8571428571427
L2980.142857142857 3141.5714285714284
L2980.142857142857 3150.1428571428573
L2977.285714285714 3155.8571428571427
L2974.4285714285716 3158.714285714286
L2968.714285714286 3161.5714285714284
L2945.857142857143 3161.5714285714284
" style="stroke: rgb(0, 0, 194); fill: none; stroke-width: 7.800000000000001" stroke-linecap="round"/>
<path d="M3003 3135.8571428571427
L3005.857142857143 3133
L3011.5714285714284 3130.1428571428573
L3025.857142857143 3130.1428571428573
L3031.5714285714284 3133
L3034.4285714285716 3135.8571428571427
L3037.285714285714 3141.5714285714284
L3037.285714285714 3147.285714285714
L3034.4285714285716 3155.8571428571427
L3000.142857142857 3190.1428571428573
L3037.285714285714 3190.1428571428573
" style="stroke: rgb(0, 0, 194); fill: none; stroke-width: 7.800000000000001" stroke-linecap="round"/>
<path d="M3057.285714285714 3130.1428571428573
L3094.4285714285716 3130.1428571428573
L3074.4285714285716 3153
L3083 3153
L3088.714285714286 3155.8571428571427
L3091.5714285714284 3158.714285714286
L3094.4285714285716 3164.4285714285716
L3094.4285714285716 3178.714285714286
L3091.5714285714284 3184.4285714285716
L3088.714285714286 3187.285714285714
L3083 3190.1428571428573
L3065.8571428571427 3190.1428571428573
L3060.142857142857 3187.285714285714
L3057.285714285714 3184.4285714285716
" style="stroke: rgb(0, 0, 194); fill: none; stroke-width: 7.800000000000001" stroke-linecap="round"/>
<path d="M3131.5714285714284 3130.1428571428573
L3137.285714285714 3130.1428571428573
L3143 3133
L3145.8571428571427 3135.8571428571427
L3148.714285714286 3141.5714285714284
L3151.5714285714284 3153
L3151.5714285714284 3167.285714285714
L3148.714285714286 3178.714285714286
L3145.8571428571427 3184.4285714285716
L3143 3187.285714285714
L3137.285714285714 3190.1428571428573
L3131.5714285714284 3190.1428571428573
L3125.8571428571427 3187.285714285714
L3123 3184.4285714285716
L3120.142857142857 3178.714285714286
L3117.285714285714 3167.285714285714
L3117.285714285714 3153
L3120.142857142857 3141.5714285714284
L3123 3135.8571428571427
L3125.8571428571427 3133
L3131.5714285714284 3130.1428571428573
" style="stroke: rgb(0, 0, 194); fill: none; stroke-width: 7.800000000000001" stroke-linecap="round"/>
<path d="M3208.7142857142853 3190.1428571428573
L3174.4285714285716 3190.1428571428573
" style="stroke: rgb(0, 0, 194); fill: none; stroke-width: 7.800000000000001" stroke-linecap="round"/>
<path d="M3191.5714285714284 3190.1428571428573
L3191.5714285714284 3130.1428571428573
L3185.8571428571427 3138.714285714286
L3180.142857142857 3144.4285714285716
L3174.4285714285716 3147.285714285714
" style="stroke: rgb(0, 0, 194); fill: none; stroke-width: 7.800000000000001" stroke-linecap="round"/>
<path d="M3228.7142857142853 3130.1428571428573
L3268.7142857142853 3130.1428571428573
L3243 3190.1428571428573
" style="stroke: rgb(0, 0, 194); fill: none; stroke-width: 7.800000000000001" stroke-linecap="round"/>
<path d="M3337.2857142857138 3190.1428571428573
L3337.2857142857138 3150.1428571428573
" style="stroke: rgb(0, 0, 194); fill: none; stroke-width: 7.800000000000001" stroke-linecap="round"/>
<path d="M3337.2857142857138 3130.1428571428573
L3334.428571428571 3133
L3337.2857142857138 3135.8571428571427
L3340.142857142857 3133
L3337.2857142857138 3130.1428571428573
L3337.2857142857138 3135.8571428571427
" style="stroke: rgb(0, 0, 194); fill: none; stroke-width: 7.800000000000001" stroke-linecap="round"/>
<path d="M3363 3187.285714285714
L3368.7142857142853 3190.1428571428573
L3380.142857142857 3190.1428571428573
L3385.8571428571427 3187.285714285714
L3388.7142857142853 3181.5714285714284
L3388.7142857142853 3178.714285714286
L3385.8571428571427 3173
L3380.142857142857 3170.1428571428573
L3371.5714285714284 3170.1428571428573
L3365.8571428571427 3167.285714285714
L3363 3161.5714285714284
L3363 3158.714285714286
L3365.8571428571427 3153
L3371.5714285714284 3150.1428571428573
L3380.142857142857 3150.1428571428573
L3385.8571428571427 3153
" style="stroke: rgb(0, 0, 194); fill: none; stroke-width: 7.800000000000001" stroke-linecap="round"/>
<path d="M3457.285714285714 3187.285714285714
L3463 3190.1428571428573
L3474.4285714285716 3190.1428571428573
L3480.142857142857 3187.285714285714
L3483 3181.5714285714284
L3483 3178.714285714286
L3480.142857142857 3173
L3474.4285714285716 3170.1428571428573
L3465.857142857143 3170.1428571428573
L3460.142857142857 3167.285714285714
L3457.285714285714 3161.5714285714284
L3457.285714285714 3158.714285714286
L3460.142857142857 3153
L3465.857142857143 3150.1428571428573
L3474.4285714285716 3150.1428571428573
L3480.142857142857 3153
" style="stroke: rgb(0, 0, 194); fill: none; stroke-width: 7.800000000000001" stroke-linecap="round"/>
<path d="M3531.5714285714284 3187.285714285714
L3525.857142857143 3190.1428571428573
L3514.4285714285716 3190.1428571428573
L3508.714285714286 3187.285714285714
L3505.857142857143 3181.5714285714284
L3505.857142857143 3158.714285714286
L3508.714285714286 3153
L3514.4285714285716 3150.1428571428573
L3525.857142857143 3150.1428571428573
L3531.5714285714284 3153
L3534.4285714285716 3158.714285714286
L3534.4285714285716 3164.4285714285716
L3505.857142857143 3170.1428571428573
" style="stroke: rgb(0, 0, 194); fill: none; stroke-width: 7.800000000000001" stroke-linecap="round"/>
<path d="M3551.5714285714284 3150.1428571428573
L3574.4285714285716 3150.1428571428573
" style="stroke: rgb(0, 0, 194); fill: none; stroke-width: 7.800000000000001" stroke-linecap="round"/>
<path d="M3560.142857142857 3130.1428571428573
L3560.142857142857 3181.5714285714284
L3563 3187.285714285714
L3568.714285714286 3190.1428571428573
L3574.4285714285716 3190.1428571428573
" style="stroke: rgb(0, 0, 194); fill: none; stroke-width: 7.800000000000001" stroke-linecap="round"/>
<path d="M3631.5714285714284 3150.1428571428573
L3654.4285714285716 3150.1428571428573
" style="stroke: rgb(0, 0, 194); fill: none; stroke-width: 7.800000000000001" stroke-linecap="round"/>
<path d="M3640.142857142857 3130.1428571428573
L3640.142857142857 3181.5714285714284
L3643 3187.285714285714
L3648.714285714286 3190.1428571428573
L3654.4285714285716 3190.1428571428573
" style="stroke: rgb(0, 0, 194); fill: none; stroke-width: 7.800000000000001" stroke-linecap="round"/>
<path d="M3683 3190.1428571428573
L3677.285714285714 3187.285714285714
L3674.4285714285716 3184.4285714285716
L3671.5714285714284 3178.714285714286
L3671.5714285714284 3161.5714285714284
L3674.4285714285716 3155.8571428571427
L3677.285714285714 3153
L3683 3150.1428571428573
L3691.5714285714284 3150.1428571428573
L3697.285714285714 3153
L3700.142857142857 3155.8571428571427
L3703 3161.5714285714284
L3703 3178.714285714286
L3700.142857142857 3184.4285714285716
L3697.285714285714 3187.285714285714
L3691.5714285714284 3190.1428571428573
L3683 3190.1428571428573
" style="stroke: rgb(0, 0, 194); fill: none; stroke-width: 7.800000000000001" stroke-linecap="round"/>
<path d="M3783 3190.1428571428573
L3777.285714285714 3187.285714285714
L3774.4285714285716 3184.4285714285716
L3771.5714285714284 3178.714285714286
L3771.5714285714284 3161.5714285714284
L3774.4285714285716 3155.8571428571427
L3777.285714285714 3153
L3783 3150.1428571428573
L3791.5714285714284 3150.1428571428573
L3797.285714285714 3153
L3800.142857142857 3155.8571428571427
L3803 3161.5714285714284
L3803 3178.714285714286
L3800.142857142857 3184.4285714285716
L3797.285714285714 3187.285714285714
L3791.5714285714284 3190.1428571428573
L3783 3190.1428571428573
" style="stroke: rgb(0, 0, 194); fill: none; stroke-width: 7.800000000000001" stroke-linecap="round"/>
<path d="M3828.7142857142853 3150.1428571428573
L3828.7142857142853 3210.1428571428573
" style="stroke: rgb(0, 0, 194); fill: none; stroke-width: 7.800000000000001" stroke-linecap="round"/>
<path d="M3828.7142857142853 3153
L3834.4285714285716 3150.1428571428573
L3845.8571428571427 3150.1428571428573
L3851.5714285714284 3153
L3854.4285714285716 3155.8571428571427
L3857.285714285714 3161.5714285714284
L3857.285714285714 3178.714285714286
L3854.4285714285716 3184.4285714285716
L3851.5714285714284 3187.285714285714
L3845.8571428571427 3190.1428571428573
L3834.4285714285716 3190.1428571428573
L3828.7142857142853 3187.285714285714
" style="stroke: rgb(0, 0, 194); fill: none; stroke-width: 7.800000000000001" stroke-linecap="round"/>
<path d="M3905.8571428571427 3187.285714285714
L3900.142857142857 3190.1428571428573
L3888.7142857142853 3190.1428571428573
L3883 3187.285714285714
L3880.142857142857 3181.5714285714284
L3880.142857142857 3158.714285714286
L3883 3153
L3888.7142857142853 3150.1428571428573
L3900.142857142857 3150.1428571428573
L3905.8571428571427 3153
L3908.7142857142853 3158.714285714286
L3908.7142857142853 3164.4285714285716
L3880.142857142857 3170.1428571428573
" style="stroke: rgb(0, 0, 194); fill: none; stroke-width: 7.800000000000001" stroke-linecap="round"/>
<path d="M3934.428571428571 3150.1428571428573
L3934.428571428571 3190.1428571428573
" style="stroke: rgb(0, 0, 194); fill: none; stroke-width: 7.800000000000001" stroke-linecap="round"/>
<path d="M3934.428571428571 3155.8571428571427
L3937.2857142857138 3153
L3943 3150.1428571428573
L3951.5714285714284 3150.1428571428573
L3957.2857142857138 3153
L3960.142857142857 3158.714285714286
L3960.142857142857 3190.1428571428573
" style="stroke: rgb(0, 0, 194); fill: none; stroke-width: 7.800000000000001" stroke-linecap="round"/>
<path d="M4060.142857142857 3190.1428571428573
L4060.142857142857 3130.1428571428573
" style="stroke: rgb(0, 0, 194); fill: none; stroke-width: 7.800000000000001" stroke-linecap="round"/>
<path d="M4060.142857142857 3187.285714285714
L4054.428571428571 3190.1428571428573
L4043 3190.1428571428573
L4037.2857142857138 3187.285714285714
L4034.428571428571 3184.4285714285716
L4031.5714285714284 3178.714285714286
L4031.5714285714284 3161.5714285714284
L4034.428571428571 3155.8571428571427
L4037.2857142857138 3153
L4043 3150.1428571428573
L4054.428571428571 3150.1428571428573
L4060.142857142857 3153
" style="stroke: rgb(0, 0, 194); fill: none; stroke-width: 7.800000000000001" stroke-linecap="round"/>
<path d="M4088.7142857142853 3190.1428571428573
L4088.7142857142853 3150.1428571428573
" style="stroke: rgb(0, 0, 194); fill: none; stroke-width: 7.800000000000001" stroke-linecap="round"/>
<path d="M4088.7142857142853 3161.5714285714284
L4091.5714285714284 3155.8571428571427
L4094.428571428571 3153
L4100.142857142857 3150.1428571428573
L4105.857142857142 3150.1428571428573
" style="stroke: rgb(0, 0, 194); fill: none; stroke-width: 7.800000000000001" stroke-linecap="round"/>
<path d="M4151.571428571428 3190.1428571428573
L4151.571428571428 3158.714285714286
L4148.714285714285 3153
L4143 3150.1428571428573
L4131.571428571428 3150.1428571428573
L4125.857142857142 3153
" style="stroke: rgb(0, 0, 194); fill: none; stroke-width: 7.800000000000001" stroke-linecap="round"/>
<path d="M4151.571428571428 3187.285714285714
L4145.857142857142 3190.1428571428573
L4131.571428571428 3190.1428571428573
L4125.857142857142 3187.285714285714
L4123 3181.5714285714284
L4123 3175.8571428571427
L4125.857142857142 3170.1428571428573
L4131.571428571428 3167.285714285714
L4145.857142857142 3167.285714285714
L4151.571428571428 3164.4285714285716
" style="stroke: rgb(0, 0, 194); fill: none; stroke-width: 7.800000000000001" stroke-linecap="round"/>
<path d="M4180.142857142857 3190.1428571428573
L4180.142857142857 3150.1428571428573
" style="stroke: rgb(0, 0, 194); fill: none; stroke-width: 7.800000000000001" stroke-linecap="round"/>
<path d="M4180.142857142857 3130.1428571428573
L4177.285714285714 3133
L4180.142857142857 3135.8571428571427
L4183 3133
L4180.142857142857 3130.1428571428573
L4180.142857142857 3135.8571428571427
" style="stroke: rgb(0, 0, 194); fill: none; stroke-width: 7.800000000000001" stroke-linecap="round"/>
<path d="M4208.714285714285 3150.1428571428573
L4208.714285714285 3190.1428571428573
" style="stroke: rgb(0, 0, 194); fill: none; stroke-width: 7.800000000000001" stroke-linecap="round"/>
<path d="M4208.714285714285 3155.8571428571427
L4211.571428571428 3153
L4217.285714285714 3150.1428571428573
L4225.857142857142 3150.1428571428573
L4231.571428571428 3153
L4234.428571428571 3158.714285714286
L4234.428571428571 3190.1428571428573
" style="stroke: rgb(0, 0, 194); fill: none; stroke-width: 7.800000000000001" stroke-linecap="round"/>
<path d="M5350 1350
L5350 2850
L8150 2850
L8150 1350
L5350 1350
" style="stroke: rgb(132, 0, 132); fill: none; stroke-width: 6" stroke-linecap="round"/>
<path d="M5367.285714285715 1343.142857142857
L5367.285714285715 1283.142857142857
L5387.285714285715 1326
L5407.285714285715 1283.142857142857
L5407.285714285715 1343.142857142857
" style="stroke: rgb(0, 132, 132); fill: none; stroke-width: 7.800000000000001" stroke-linecap="round"/>
<path d="M5461.571428571428 1343.142857142857
L5461.571428571428 1311.7142857142858
L5458.714285714285 1306
L5453 1303.142857142857
L5441.571428571428 1303.142857142857
L5435.857142857143 1306
" style="stroke: rgb(0, 132, 132); fill: none; stroke-width: 7.800000000000001" stroke-linecap="round"/>
<path d="M5461.571428571428 1340.2857142857142
L5455.857142857143 1343.142857142857
L5441.571428571428 1343.142857142857
L5435.857142857143 1340.2857142857142
L5433 1334.5714285714287
L5433 1328.857142857143
L5435.857142857143 1323.142857142857
L5441.571428571428 1320.2857142857142
L5455.857142857143 1320.2857142857142
L5461.571428571428 1317.4285714285713
" style="stroke: rgb(0, 132, 132); fill: none; stroke-width: 7.800000000000001" stroke-linecap="round"/>
<path d="M5490.142857142857 1343.142857142857
L5490.142857142857 1303.142857142857
" style="stroke: rgb(0, 132, 132); fill: none; stroke-width: 7.800000000000001" stroke-linecap="round"/>
<path d="M5490.142857142857 1283.142857142857
L5487.285714285715 1286
L5490.142857142857 1288.857142857143
L5493 1286
L5490.142857142857 1283.142857142857
L5490.142857142857 1288.857142857143
" style="stroke: rgb(0, 132, 132); fill: none; stroke-width: 7.800000000000001" stroke-linecap="round"/>
<path d="M5518.714285714285 1303.142857142857
L5518.714285714285 1343.142857142857
" style="stroke: rgb(0, 132, 132); fill: none; stroke-width: 7.800000000000001" stroke-linecap="round"/>
<path d="M5518.714285714285 1308.857142857143
L5521.571428571428 1306
L5527.285714285715 1303.142857142857
L5535.857142857143 1303.142857142857
L5541.571428571428 1306
L5544.428571428572 1311.7142857142858
L5544.428571428572 1343.142857142857
" style="stroke: rgb(0, 132, 132); fill: none; stroke-width: 7.800000000000001" stroke-linecap="round"/>
<path d="M5353 2916.8571428571427
L5398.714285714285 2916.8571428571427
" style="stroke: rgb(132, 132, 0); fill: none; stroke-width: 7.800000000000001" stroke-linecap="round"/>
<path d="M5413 2911.1428571428573
L5413 2871.1428571428573
" style="stroke: rgb(132, 132, 0); fill: none; stroke-width: 7.800000000000001" stroke-linecap="round"/>
<path d="M5413 2876.8571428571427
L5415.857142857143 2874
L5421.571428571428 2871.1428571428573
L5430.142857142857 2871.1428571428573
L5435.857142857143 2874
L5438.714285714285 2879.714285714286
L5438.714285714285 2911.1428571428573
" style="stroke: rgb(132, 132, 0); fill: none; stroke-width: 7.800000000000001" stroke-linecap="round"/>
<path d="M5438.714285714285 2879.714285714286
L5441.571428571428 2874
L5447.285714285715 2871.1428571428573
L5455.857142857143 2871.1428571428573
L5461.571428571428 2874
L5464.428571428572 2879.714285714286
L5464.428571428572 2911.1428571428573
" style="stroke: rgb(132, 132, 0); fill: none; stroke-width: 7.800000000000001" stroke-linecap="round"/>
<path d="M5518.714285714285 2911.1428571428573
L5518.714285714285 2879.714285714286
L5515.857142857143 2874
L5510.142857142857 2871.1428571428573
L5498.714285714285 2871.1428571428573
L5493 2874
" style="stroke: rgb(132, 132, 0); fill: none; stroke-width: 7.800000000000001" stroke-linecap="round"/>
<path d="M5518.714285714285 2908.285714285714
L5513 2911.1428571428573
L5498.714285714285 2911.1428571428573
L5493 2908.285714285714
L5490.142857142857 2902.5714285714284
L5490.142857142857 2896.8571428571427
L5493 2891.1428571428573
L5498.714285714285 2888.285714285714
L5513 2888.285714285714
L5518.714285714285 2885.4285714285716
" style="stroke: rgb(132, 132, 0); fill: none; stroke-width: 7.800000000000001" stroke-linecap="round"/>
<path d="M5547.285714285715 2911.1428571428573
L5547.285714285715 2871.1428571428573
" style="stroke: rgb(132, 132, 0); fill: none; stroke-width: 7.800000000000001" stroke-linecap="round"/>
<path d="M5547.285714285715 2851.1428571428573
L5544.428571428572 2854
L5547.285714285715 2856.8571428571427
L5550.142857142857 2854
L5547.285714285715 2851.1428571428573
L5547.285714285715 2856.8571428571427
" style="stroke: rgb(132, 132, 0); fill: none; stroke-width: 7.800000000000001" stroke-linecap="round"/>
<path d="M5575.857142857143 2871.1428571428573
L5575.857142857143 2911.1428571428573
" style="stroke: rgb(132, 132, 0); fill: none; stroke-width: 7.800000000000001" stroke-linecap="round"/>
<path d="M5575.857142857143 2876.8571428571427
L5578.714285714285 2874
L5584.428571428572 2871.1428571428573
L5593 2871.1428571428573
L5598.714285714285 2874
L5601.571428571428 2879.714285714286
L5601.571428571428 2911.1428571428573
" style="stroke: rgb(132, 132, 0); fill: none; stroke-width: 7.800000000000001" stroke-linecap="round"/>
<path d="M5630.142857142857 2905.4285714285716
L5633 2908.285714285714
L5630.142857142857 2911.1428571428573
L5627.285714285715 2908.285714285714
L5630.142857142857 2905.4285714285716
L5630.142857142857 2911.1428571428573
" style="stroke: rgb(132, 132, 0); fill: none; stroke-width: 7.800000000000001" stroke-linecap="round"/>
<path d="M5655.857142857143 2908.285714285714
L5661.571428571428 2911.1428571428573
L5673 2911.1428571428573
L5678.714285714285 2908.285714285714
L5681.571428571428 2902.5714285714284
L5681.571428571428 2899.714285714286
L5678.714285714285 2894
L5673 2891.1428571428573
L5664.428571428572 2891.1428571428573
L5658.714285714285 2888.285714285714
L5655.857142857143 2882.5714285714284
L5655.857142857143 2879.714285714286
L5658.714285714285 2874
L5664.428571428572 2871.1428571428573
L5673 2871.1428571428573
L5678.714285714285 2874
" style="stroke: rgb(132, 132, 0); fill: none; stroke-width: 7.800000000000001" stroke-linecap="round"/>
<path d="M5733 2908.285714285714
L5727.285714285714 2911.1428571428573
L5715.857142857143 2911.1428571428573
L5710.142857142857 2908.285714285714
L5707.285714285714 2905.4285714285716
L5704.428571428572 2899.714285714286
L5704.428571428572 2882.5714285714284
L5707.285714285714 2876.8571428571427
L5710.142857142857 2874
L5715.857142857143 2871.1428571428573
L5727.285714285714 2871.1428571428573
L5733 2874
" style="stroke: rgb(132, 132, 0); fill: none; stroke-width: 7.800000000000001" stroke-linecap="round"/>
<path d="M5758.714285714285 2911.1428571428573
L5758.714285714285 2851.1428571428573
" style="stroke: rgb(132, 132, 0); fill: none; stroke-width: 7.800000000000001" stroke-linecap="round"/>
<path d="M5784.428571428572 2911.1428571428573
L5784.428571428572 2879.714285714286
L5781.571428571428 2874
L5775.857142857143 2871.1428571428573
L5767.285714285714 2871.1428571428573
L5761.571428571428 2874
L5758.714285714285 2876.8571428571427
" style="stroke: rgb(132, 132, 0); fill: none; stroke-width: 7.800000000000001" stroke-linecap="round"/>
<path d="M1850 850
L1850 800
" style="stroke: rgb(0, 132, 0); fill: none; stroke-width: 6" stroke-linecap="round"/>
</svg>